<svg class="indigo-logo__svg" xmlns="http://www.w3.org/2000/svg" width="130" height="66" viewBox="0 0 130 66"><path fill="#f0f0f0" d="M8.85 42.25H0V0h8.85zm0 3.37H0v8.88h8.85zM13 15.53h8.85v3.73h.18C24.16 17.13 26.81 15 30 15c4.25 0 6.2 2.84 6.2 7.99v31.06h-8.86V26.18c0-2.84-1.06-3.9-2.47-3.9-1.24 0-2.31.71-3.02 1.42v30.17H13zM55.05 47.4a3.18 3.18 0 0 1-2.65 1.24c-2.66 0-3.01-1.78-3.01-13.49 0-12.07.7-13.67 3.36-13.67 1.06 0 2.13.53 2.48 1.24V47.4zm8.86 7.1V0h-8.86v18.11h-.17a7 7 0 0 0-5.49-2.84c-6.38 0-9.39 7.1-9.39 19.7s2.3 19.88 8.68 19.88c3.54 0 4.96-1.6 6.73-3.73h.17v3.38zM68 15.98h8.85v38.34H68zm0-7.1h8.85V0H68zM97.48 55.73c0 2.31-2.12 3.73-6.2 3.73-4.6 0-6.02-1.06-6.02-3.02 0-2.66 4.07-3.9 5.49-4.08.89 0 6.73.89 6.73 3.37zM104.74 11c-3.36.36-6.37 2.84-7.79 5.86-2.13-1.6-4.25-1.78-6.02-1.78-7.09 0-11.16 5.86-11.16 11.9 0 4.43.89 8.16 4.61 10.82-2.84 1.6-4.96 3.73-4.96 7.28 0 3.2 2.48 5.15 5.31 5.86v.18c-3.37 1.24-6.73 2.84-6.73 7.1 0 2.48 2.83 7.45 13.1 7.45 10.28 0 13.82-5.5 13.82-10.82 0-12.96-18.07-8.88-18.07-13.67 0-.71.18-1.42.89-1.78 1.06.36 2.13.36 3.19.36 6.9 0 11.33-5.86 11.33-12.43 0-3.19-.71-5.5-2.65-7.81a5.56 5.56 0 0 1 2.65-1.06c.53 0 1.77.17 2.66.53V11zm-17 16.33c0-4.79 1.06-6.92 3.19-6.92 2.12 0 3.19 2.13 3.19 6.92s-1.07 6.75-3.19 6.75c-2.13 0-3.19-2.13-3.19-6.75zM120.05 34.88c0 11.72-.71 13.31-2.65 13.31-2.13 0-2.66-1.77-2.66-13.31 0-11.71.71-13.31 2.66-13.31 1.94-.18 2.65 1.6 2.65 13.31zm9.39 0c0-14.55-5.31-19.88-12.22-19.88-6.91 0-12.22 5.33-12.22 19.88 0 14.56 5.31 19.88 12.22 19.88 6.91-.18 12.22-5.32 12.22-19.88z"></path></svg>