<?xml version="1.0" encoding="UTF-8"?>
<svg version="1.1" xmlns="http://www.w3.org/2000/svg" width="82" height="82">
<path d="M0 0 C27.06 0 54.12 0 82 0 C82 27.06 82 54.12 82 82 C54.94 82 27.88 82 0 82 C0 54.94 0 27.88 0 0 Z " fill="#ECD452" transform="translate(0,0)"/>
<path d="M0 0 C27.06 0 54.12 0 82 0 C82 27.06 82 54.12 82 82 C54.94 82 27.88 82 0 82 C0 54.94 0 27.88 0 0 Z M16 8 C16 10.64 16 13.28 16 16 C13.36 16 10.72 16 8 16 C8 32.5 8 49 8 66 C10.64 66 13.28 66 16 66 C16 68.64 16 71.28 16 74 C32.5 74 49 74 66 74 C66 71.36 66 68.72 66 66 C68.64 66 71.28 66 74 66 C74 49.5 74 33 74 16 C71.36 16 68.72 16 66 16 C66 13.36 66 10.72 66 8 C49.5 8 33 8 16 8 Z " fill="#CACAC4" transform="translate(0,0)"/>
<path d="M0 0 C16.5 0 33 0 50 0 C50 2.64 50 5.28 50 8 C33.5 8 17 8 0 8 C0 5.36 0 2.72 0 0 Z " fill="#1A242E" transform="translate(16,66)"/>
<path d="M0 0 C2.64 0 5.28 0 8 0 C8 16.5 8 33 8 50 C5.36 50 2.72 50 0 50 C0 33.5 0 17 0 0 Z " fill="#1A242E" transform="translate(66,16)"/>
<path d="M0 0 C2.64 0 5.28 0 8 0 C8 16.5 8 33 8 50 C5.36 50 2.72 50 0 50 C0 33.5 0 17 0 0 Z " fill="#1A242E" transform="translate(8,16)"/>
<path d="M0 0 C16.5 0 33 0 50 0 C50 2.64 50 5.28 50 8 C33.5 8 17 8 0 8 C0 5.36 0 2.72 0 0 Z " fill="#1A242E" transform="translate(16,8)"/>
<path d="M0 0 C7.92 0 15.84 0 24 0 C24 2.64 24 5.28 24 8 C16.08 8 8.16 8 0 8 C0 5.36 0 2.72 0 0 Z " fill="#1A242E" transform="translate(29,50)"/>
<path d="M0 0 C2.64 0 5.28 0 8 0 C8 2.64 8 5.28 8 8 C5.36 8 2.72 8 0 8 C0 5.36 0 2.72 0 0 Z " fill="#1A242E" transform="translate(53,42)"/>
<path d="M0 0 C2.64 0 5.28 0 8 0 C8 2.64 8 5.28 8 8 C5.36 8 2.72 8 0 8 C0 5.36 0 2.72 0 0 Z " fill="#1A242E" transform="translate(21,42)"/>
<path d="M0 0 C2.64 0 5.28 0 8 0 C8 2.64 8 5.28 8 8 C5.36 8 2.72 8 0 8 C0 5.36 0 2.72 0 0 Z " fill="#1A242E" transform="translate(45,26)"/>
<path d="M0 0 C2.64 0 5.28 0 8 0 C8 2.64 8 5.28 8 8 C5.36 8 2.72 8 0 8 C0 5.36 0 2.72 0 0 Z " fill="#1A242E" transform="translate(29,26)"/>
</svg>
