<?xml version="1.0" encoding="utf-8"?>
<!-- Generator: Adobe Illustrator 21.0.2, SVG Export Plug-In . SVG Version: 6.00 Build 0)  -->
<svg version="1.1"
	 id="svg2" xmlns:cc="http://creativecommons.org/ns#" xmlns:dc="http://purl.org/dc/elements/1.1/" xmlns:rdf="http://www.w3.org/1999/02/22-rdf-syntax-ns#" xmlns:svg="http://www.w3.org/2000/svg"
	 xmlns="http://www.w3.org/2000/svg" xmlns:xlink="http://www.w3.org/1999/xlink" x="0px" y="0px" viewBox="0 0 2027 1276"
	 style="enable-background:new 0 0 2027 1276;" xml:space="preserve">
<style type="text/css">
	.st0{fill:#292729;}
	.st1{fill:#FFFFFF;}
	.st2{fill:#828282;}
	.st3{fill:#BAD879;}
</style>
<path id="rect3029" class="st0" d="M90.6,0h1845.8c50,0,90.6,40.6,90.6,90.6v1094.8c0,50-40.6,90.6-90.6,90.6H90.6
	c-50,0-90.6-40.6-90.6-90.6V90.6C0,40.6,40.6,0,90.6,0z"/>
<g>
	<path class="st1" d="M999.7,1087.3h-21.8v66.8h-43.9V977h66.8c39.8,0,71.2,14,71.2,54.5C1071.9,1072.5,1037.7,1087.3,999.7,1087.3z
		 M997.1,1011.5h-19.3v41.8h18.5c16.4,0,31.6-4.8,31.6-21.5C1027.9,1014.8,1012.8,1011.5,997.1,1011.5z"/>
	<path class="st1" d="M1195.7,1154l-39.3-70.3h-14.9v70.3h-43.2V977h69.4c34.9,0,69.6,12.8,69.6,53.5c0,24-14.1,40.8-37.8,47.8
		l47.5,75.8H1195.7z M1164.6,1011.5h-23.4v41.3h20.8c14.4,0,31.9-3.5,31.9-21.5C1193.9,1014.5,1178,1011.5,1164.6,1011.5z"/>
	<path class="st1" d="M1268.7,1154V977H1391v36.3h-79.9v33.3h75.5v34.3h-75.5v36.8h84.5v36.5H1268.7z"/>
	<path class="st1" d="M1516.1,1023c-7.5-9.3-21.1-15.3-32.4-15.3s-25.4,3.8-25.4,17.8c0,11.8,10.8,15.3,28,20.8
		c24.7,7.8,56.5,17.8,56.5,53.3c0,40.8-33.7,59-69.6,59c-26,0-51.9-9.3-68.1-25.5l28.8-28.5c9,10.8,24.9,18.8,39.3,18.8
		c13.4,0,25.2-5,25.2-19.3c0-13.3-13.9-18-37.8-25.3c-23.4-7.3-46.5-18.8-46.5-50.8c0-39.3,36.2-55.5,70.4-55.5
		c20.6,0,43.4,7.5,59.6,21.8L1516.1,1023z"/>
	<path class="st1" d="M1649.7,1013.5V1154h-43.9v-140.5h-51.4V977h146.7v36.5H1649.7z"/>
	<path class="st1" d="M1811.6,1158.8c-56.8,0-98.9-37.8-98.9-94c0-56.8,42.1-92.5,98.9-92.5c57,0,99.2,35.8,99.2,92.5
		C1910.8,1121,1868.7,1158.8,1811.6,1158.8z M1811.6,1010.8c-30.8,0-51.9,23-51.9,54c0,32,21.3,55,51.9,55c30.6,0,52.2-23,52.2-55
		C1863.8,1033.8,1842.5,1010.8,1811.6,1010.8z"/>
</g>
<g>
	<path class="st1" d="M1494.1,224l0.3-36.1h-0.2l-13.9,36.1h-9.1l-13.5-36.1h-0.2l0.3,36.1h-12.2v-51h18.4l12.2,32.7h0.3L1488,173
		h18.7v51H1494.1z"/>
	<path class="st1" d="M1517.8,224v-51h36v10.4h-23.5v9.6h22.2v9.9h-22.2v10.6h24.9V224H1517.8z"/>
	<path class="st1" d="M1586.6,183.5V224h-12.9v-40.5h-15.1V173h43.2v10.5H1586.6z"/>
	<path class="st1" d="M1636.3,224l-11.6-20.2h-4.4V224h-12.7v-51h20.4c10.3,0,20.5,3.7,20.5,15.4c0,6.9-4.2,11.7-11.1,13.8l14,21.8
		H1636.3z M1627.1,183h-6.9v11.9h6.1c4.2,0,9.4-1,9.4-6.2C1635.8,183.8,1631.1,183,1627.1,183z"/>
	<path class="st1" d="M1684.4,225.4c-16.7,0-29.1-10.9-29.1-27.1c0-16.3,12.4-26.6,29.1-26.6c16.8,0,29.2,10.3,29.2,26.6
		C1713.6,214.5,1701.2,225.4,1684.4,225.4z M1684.4,182.7c-9.1,0-15.3,6.6-15.3,15.6c0,9.2,6.3,15.8,15.3,15.8s15.4-6.6,15.4-15.8
		C1699.8,189.4,1693.5,182.7,1684.4,182.7z"/>
	<path class="st1" d="M1722.1,224v-51h13v40.3h20.7V224H1722.1z"/>
	<path class="st1" d="M1761.9,224v-51h13v51H1761.9z"/>
	<path class="st1" d="M1820,224l-21.6-33.3h-0.2l0.3,33.3H1786v-51h14.7l21.5,33.3h0.2l-0.3-33.3h12.6v51H1820z"/>
	<path class="st1" d="M1878,224l-11.7-18l-11.3,18h-15.4l18.8-26.9l-17.2-24.1h15.6l10,15.8l9.8-15.8h15.1l-16.9,24.1L1894,224H1878
		z"/>
</g>
<circle class="st2" cx="1782.3" cy="326.3" r="15"/>
<circle class="st2" cx="1782.3" cy="381.3" r="15"/>
<circle class="st2" cx="1782.3" cy="436.3" r="15"/>
<circle class="st2" cx="1837.7" cy="326.3" r="15"/>
<g>
	<path class="st3" d="M1894,276H412.6c-5.9,0-11.4-2.2-15.6-6.1L289.3,167.3l-48,45.7c-4.2,4-9.7,6.1-15.6,6.1h-75.9v-34.5h69.7
		l54.1-51.5c8.6-8.2,22.6-8.2,31.2,0l113.5,108.4L1894,245V276z"/>
	<path class="st1" d="M281.8,276H148.5v-34.5h127.1l113.9-108.4c8.6-8.2,22.6-8.2,31.2,0l54.1,51.5H1410V224l-940.9-4.9
		c-5.9,0-11.4-2.2-15.6-6.1l-48.4-45.7L297.4,269.9C293.2,273.8,287.7,276,281.8,276"/>
</g>
</svg>
